<svg width="233" height="59" viewBox="0 0 233 59" fill="none" xmlns="http://www.w3.org/2000/svg">
<path d="M0.000116348 19.6666L19.5991 19.6666L19.5991 -4.76837e-05L0.000116348 -4.76837e-05L0.000116348 19.6666Z" fill="#E8CB3C"/>
<path d="M39.1981 49.1667C39.1981 43.7359 34.8108 39.3334 29.3986 39.3334C23.9865 39.3334 19.5991 43.7359 19.5991 49.1667C19.5991 54.5975 23.9865 59 29.3986 59C34.8108 59 39.1981 54.5975 39.1981 49.1667Z" fill="#0091F0"/>
<path d="M9.79961 39.3334H0.000116348V29.5001C0.000116348 26.8921 1.03256 24.3909 2.87033 22.5468C4.70809 20.7027 7.20062 19.6667 9.79961 19.6667H19.5991L19.5991 29.5001C19.5991 32.108 18.5667 34.6092 16.7289 36.4533C14.8911 38.2974 12.3986 39.3334 9.79961 39.3334Z" fill="#E10E1A"/>
<path d="M9.79951 39.3334H19.599V49.1667C19.599 51.7747 18.5666 54.2758 16.7288 56.1199C14.891 57.964 12.3985 59 9.79951 59C7.20052 59 4.70797 57.964 2.87021 56.1199C1.03244 54.2758 0 51.7747 0 49.1667C0 46.5587 1.03244 44.0576 2.87021 42.2135C4.70797 40.3694 7.20052 39.3334 9.79951 39.3334Z" fill="#C200A9"/>
<path d="M36.3222 22.5447C35.4123 21.631 34.3317 20.9065 33.1423 20.4126C31.9529 19.9188 30.678 19.6653 29.3908 19.6666C28.1036 19.6653 26.8288 19.9188 25.6394 20.4126C24.45 20.9065 23.3694 21.631 22.4595 22.5447C21.5486 23.4575 20.8263 24.5417 20.3342 25.7353C19.842 26.9289 19.5895 28.2082 19.5913 29.4999C19.5913 32.1079 20.6238 34.6091 22.4615 36.4532C24.2993 38.2973 26.7918 39.3333 29.3908 39.3333C30.6783 39.3339 31.9532 39.0797 33.1426 38.5852C34.332 38.0907 35.4125 37.3656 36.3222 36.4514C37.2329 35.5394 37.9551 34.4557 38.4473 33.2628C38.9395 32.0698 39.192 30.7911 39.1903 29.4999C39.1921 28.2082 38.9397 26.9289 38.4475 25.7353C37.9553 24.5417 37.233 23.4575 36.3222 22.5447Z" fill="#8EC300"/>
<path d="M67.8985 47.1871C66.5465 47.2066 65.2115 46.8832 64.0174 46.2468C62.8686 45.6221 61.9211 44.6819 61.2858 43.5362C60.5807 42.2262 60.2314 40.7532 60.2728 39.2649V25.4266H62.9627V34.5633H63.0196C63.3491 33.9572 63.7908 33.4197 64.3209 32.9796C64.8688 32.5239 65.4914 32.1671 66.1609 31.9251C66.8585 31.6693 67.5959 31.5404 68.3386 31.5444C69.636 31.5231 70.916 31.8461 72.0489 32.4809C73.1407 33.1116 74.0364 34.0342 74.6363 35.1457C75.293 36.3963 75.6195 37.7947 75.5848 39.2077C75.6019 40.3426 75.409 41.4708 75.0157 42.535C74.6625 43.4804 74.1202 44.3432 73.4223 45.0704C72.74 45.7743 71.9126 46.32 70.998 46.6694C70.0055 47.0323 68.9546 47.2079 67.8985 47.1871ZM67.8985 44.8687C68.7776 44.8783 69.6426 44.6452 70.3986 44.1949C71.1573 43.7349 71.7775 43.077 72.1931 42.2914C72.6622 41.3875 72.8946 40.3788 72.8684 39.36C72.8906 38.3617 72.6637 37.3737 72.2083 36.4858C71.7986 35.6964 71.1888 35.0294 70.4403 34.5519C69.6881 34.0796 68.8161 33.8351 67.9288 33.8476C67.0496 33.8374 66.1845 34.0705 65.4287 34.5214C64.6698 34.9848 64.0539 35.6503 63.6494 36.4439C63.1901 37.3563 62.9633 38.3687 62.9892 39.3905C62.964 40.3976 63.191 41.395 63.6494 42.2914C64.0559 43.0786 64.6718 43.7374 65.4287 44.1949C66.1747 44.6427 67.0292 44.8758 67.8985 44.8687Z" fill="white"/>
<path d="M85.957 47.1871C84.6345 47.2197 83.3323 46.8566 82.2162 46.144C81.1614 45.4461 80.3218 44.4664 79.792 43.3154C79.2159 42.0765 78.9254 40.7232 78.9422 39.3562C78.9235 37.9754 79.2454 36.6113 79.8792 35.3855C80.4921 34.21 81.4248 33.233 82.5691 32.5684C83.8529 31.8452 85.3086 31.486 86.7803 31.5291C88.2015 31.4894 89.6061 31.8438 90.8397 32.5532C91.9529 33.2193 92.8583 34.1846 93.4536 35.3399C94.0748 36.5531 94.3888 37.901 94.3679 39.2648V46.8292H91.6516V43.7837H91.5908C91.2772 44.3806 90.8798 44.9293 90.411 45.413C89.8782 45.9534 89.2471 46.3863 88.552 46.6884C87.7316 47.036 86.8473 47.2059 85.957 47.1871ZM86.6588 44.8686C87.5709 44.8856 88.4683 44.637 89.2425 44.1529C90.0007 43.664 90.6088 42.9734 90.999 42.1581C91.4251 41.2665 91.6394 40.2878 91.625 39.2991C91.6403 38.3364 91.4352 37.3831 91.0256 36.5124C90.6486 35.7157 90.0573 35.0406 89.3183 34.5633C88.5398 34.0728 87.6348 33.8226 86.7158 33.8437C85.7628 33.8155 84.8229 34.0712 84.0145 34.5785C83.266 35.0634 82.668 35.7493 82.2883 36.5581C81.8775 37.4432 81.6725 38.4104 81.6889 39.3866C81.6773 40.3424 81.8768 41.2889 82.2732 42.1581C82.6435 42.9637 83.2309 43.6494 83.969 44.1377C84.7739 44.6429 85.7099 44.8973 86.6588 44.8686Z" fill="white"/>
<path d="M106.353 47.1871C105.1 47.207 103.862 46.9195 102.745 46.3496C101.715 45.8231 100.853 45.0156 100.26 44.0197C99.6486 42.9605 99.34 41.7526 99.3685 40.5288V31.8794H102.085V40.5021C102.065 41.3176 102.267 42.1231 102.669 42.832C103.041 43.4741 103.582 44.001 104.232 44.3548C104.874 44.7022 105.593 44.8828 106.323 44.8801C107.062 44.8852 107.791 44.7046 108.443 44.3548C109.096 43.9992 109.64 43.473 110.018 42.832C110.432 42.1273 110.64 41.3198 110.617 40.5021V31.8794H113.337V40.5288C113.365 41.7544 113.051 42.9634 112.431 44.0197C111.832 45.0115 110.972 45.8178 109.946 46.3496C108.835 46.921 107.601 47.2087 106.353 47.1871Z" fill="white"/>
<path d="M131.81 46.833V34.1978H129.211V31.8793H131.81V29.6828C131.81 28.3503 132.189 27.311 132.948 26.5572C133.707 25.8035 134.735 25.4152 136.059 25.4152H139.272V27.7298H136.586C136.308 27.7117 136.03 27.7521 135.768 27.8485C135.507 27.9449 135.269 28.095 135.069 28.2894C134.698 28.7183 134.51 29.2761 134.545 29.8426V31.8641H144.595V46.8178H141.909V34.1826H134.545V46.8178L131.81 46.833ZM143.237 29.4467C142.999 29.4489 142.763 29.4017 142.545 29.308C142.326 29.2143 142.129 29.0762 141.966 28.9023C141.793 28.7386 141.656 28.5408 141.562 28.3214C141.469 28.1019 141.422 27.8656 141.423 27.627C141.422 27.3886 141.47 27.1524 141.563 26.9332C141.657 26.7139 141.794 26.516 141.966 26.3517C142.13 26.179 142.327 26.042 142.545 25.949C142.764 25.856 142.999 25.809 143.237 25.8111C143.477 25.8067 143.715 25.8525 143.937 25.9456C144.158 26.0387 144.358 26.177 144.523 26.3517C144.691 26.5184 144.823 26.7172 144.913 26.9362C145.003 27.1552 145.048 27.3901 145.046 27.627C145.049 27.864 145.004 28.0991 144.914 28.3182C144.824 28.5373 144.691 28.736 144.523 28.9023C144.358 29.0783 144.159 29.2177 143.937 29.3114C143.716 29.4052 143.477 29.4513 143.237 29.4467Z" fill="white"/>
<path d="M149.576 46.8331V38.1837C149.547 36.9611 149.856 35.7543 150.468 34.6965C151.059 33.7037 151.914 32.8957 152.937 32.3629C154.048 31.7927 155.282 31.5064 156.53 31.5292C157.783 31.5026 159.023 31.7891 160.138 32.3629C161.156 32.8973 162.006 33.7053 162.593 34.6965C163.204 35.7543 163.513 36.9611 163.484 38.1837V46.8331H160.798V38.2141C160.819 37.3966 160.611 36.5896 160.199 35.8843C159.819 35.243 159.274 34.7168 158.621 34.3615C157.979 34.0129 157.26 33.831 156.53 33.8324C155.8 33.831 155.082 34.0129 154.44 34.3615C153.787 34.7158 153.242 35.2424 152.865 35.8843C152.451 36.5889 152.243 37.3964 152.266 38.2141V46.8331H149.576Z" fill="white"/>
<path d="M174.676 47.1871C173.354 47.2193 172.052 46.8562 170.936 46.144C169.881 45.4461 169.041 44.4664 168.511 43.3154C167.937 42.0762 167.647 40.723 167.665 39.3562C167.646 37.9757 167.966 36.6117 168.599 35.3856C169.213 34.2108 170.145 33.2342 171.289 32.5684C172.571 31.8459 174.026 31.4867 175.496 31.5291C176.917 31.4891 178.322 31.8434 179.555 32.5532C180.669 33.2202 181.575 34.1851 182.173 35.3399C182.795 36.5545 183.11 37.9034 183.091 39.2686V46.833H180.375V43.7875H180.318C180.004 44.3853 179.605 44.9342 179.134 45.4168C178.603 45.9572 177.973 46.3901 177.279 46.6922C176.456 47.0387 175.569 47.2073 174.676 47.1871ZM175.378 44.8686C176.291 44.8851 177.19 44.6366 177.966 44.153C178.722 43.6627 179.329 42.9724 179.718 42.1581C180.145 41.2665 180.359 40.2879 180.344 39.2991C180.362 38.3362 180.157 37.3825 179.745 36.5124C179.368 35.7158 178.777 35.0407 178.038 34.5633C177.259 34.0728 176.354 33.8226 175.435 33.8438C174.482 33.816 173.543 34.0716 172.734 34.5785C171.986 35.0626 171.389 35.7487 171.012 36.5581C170.599 37.4426 170.394 38.4102 170.412 39.3867C170.399 40.3426 170.598 41.2896 170.996 42.1581C171.364 42.9642 171.951 43.6502 172.688 44.1377C173.493 44.643 174.429 44.8973 175.378 44.8686Z" fill="white"/>
<path d="M188.076 46.833V38.1836C188.047 36.961 188.356 35.7543 188.968 34.6965C189.559 33.7037 190.414 32.8956 191.437 32.3628C192.548 31.7927 193.782 31.5063 195.03 31.5291C196.284 31.5032 197.525 31.7896 198.642 32.3628C199.658 32.8983 200.507 33.7061 201.093 34.6965C201.704 35.7543 202.013 36.961 201.984 38.1836V46.833H199.298V38.2141C199.319 37.3966 199.111 36.5896 198.699 35.8842C198.32 35.2421 197.775 34.7157 197.121 34.3614C196.479 34.0128 195.76 33.8309 195.03 33.8323C194.301 33.8309 193.584 34.0128 192.944 34.3614C192.289 34.7157 191.744 35.2421 191.365 35.8842C190.951 36.5889 190.743 37.3964 190.766 38.2141V46.833H188.076Z" fill="white"/>
<path d="M214.212 46.8331C212.776 46.8593 211.358 46.5159 210.092 45.8357C208.923 45.2123 207.935 44.2938 207.228 43.1708C206.521 42.0291 206.156 40.7077 206.177 39.3639C206.156 38.02 206.52 36.6984 207.228 35.5569C207.937 34.4352 208.924 33.517 210.092 32.8921C211.358 32.2136 212.777 31.8703 214.212 31.8946H215.965V34.2131H214.125C213.188 34.1977 212.264 34.4357 211.45 34.9021C210.674 35.3465 210.029 35.9887 209.58 36.7637C209.119 37.5542 208.882 38.4558 208.893 39.3715C208.882 40.2884 209.119 41.1912 209.58 41.983C210.031 42.7564 210.676 43.3981 211.45 43.8446C212.265 44.3093 213.188 44.5472 214.125 44.5337H215.965V46.8483L214.212 46.8331Z" fill="white"/>
<path d="M227.331 46.8331C225.828 46.8611 224.339 46.5461 222.976 45.9118C221.761 45.3407 220.734 44.4349 220.013 43.3002C219.283 42.1174 218.911 40.7472 218.943 39.3562C218.921 37.9689 219.232 36.5967 219.85 35.3551C220.419 34.2094 221.289 33.2409 222.365 32.5532C223.486 31.8571 224.784 31.5014 226.102 31.5292C227.452 31.4777 228.789 31.8244 229.945 32.5266C230.953 33.1707 231.751 34.0972 232.24 35.1915C232.758 36.3791 233.017 37.6641 232.999 38.9603C232.999 39.1773 232.999 39.4019 232.999 39.6341C232.994 39.8415 232.97 40.0479 232.927 40.2509H221.822C221.892 41.0996 222.207 41.9093 222.729 42.5807C223.241 43.2216 223.91 43.7175 224.672 44.0198C225.505 44.3491 226.394 44.5133 227.289 44.5032H231.174V46.8179L227.331 46.8331ZM221.777 38.3588H230.283C230.279 37.9602 230.239 37.5627 230.165 37.1711C230.083 36.7449 229.945 36.3314 229.755 35.9414C229.564 35.5399 229.308 35.1732 228.997 34.8564C228.652 34.5244 228.244 34.2654 227.798 34.0951C227.261 33.8895 226.691 33.79 226.117 33.8019C225.497 33.7827 224.882 33.9133 224.323 34.1826C223.813 34.4414 223.36 34.8 222.991 35.2371C222.623 35.6758 222.336 36.1774 222.145 36.718C221.95 37.2462 221.827 37.798 221.777 38.3588Z" fill="white"/>
<path d="M118.44 39.1278H122.442C123.421 39.1278 124.36 39.5181 125.053 40.2127C125.745 40.9074 126.134 41.8496 126.134 42.832V46.8635H122.116C121.137 46.8635 120.198 46.4733 119.506 45.7786C118.814 45.0839 118.425 44.1418 118.425 43.1594V39.1278H118.44Z" fill="#8EC300"/>
</svg>
