<svg width="114" height="101" viewBox="0 0 114 101" fill="none" xmlns="http://www.w3.org/2000/svg">
<path d="M32.5978 24.3097L56.9785 24.3097V-4.57764e-05L32.5978 -4.57764e-05V24.3097Z" fill="#E8CB3C"/>
<path d="M81.3558 60.7744C81.3558 54.0614 75.898 48.6195 69.1655 48.6195C62.4329 48.6195 56.9751 54.0614 56.9751 60.7744C56.9751 67.4873 62.4329 72.9292 69.1655 72.9292C75.898 72.9292 81.3558 67.4873 81.3558 60.7744Z" fill="#0091F0"/>
<path d="M44.7866 48.6227H32.5946V36.4662C32.5946 33.2421 33.8791 30.1501 36.1656 27.8703C38.452 25.5905 41.5531 24.3098 44.7866 24.3098H56.9785V36.4662C56.9785 39.6903 55.694 42.7824 53.4076 45.0621C51.1211 47.3419 48.0201 48.6227 44.7866 48.6227Z" fill="#E10E1A"/>
<path d="M44.7867 48.6195H56.9786V60.776C56.9786 64.0001 55.6941 67.0921 53.4077 69.3719C51.1212 71.6516 48.0202 72.9324 44.7867 72.9324C41.5532 72.9324 38.4521 71.6516 36.1657 69.3719C33.8792 67.0921 32.5947 64.0001 32.5947 60.776C32.5947 57.5519 33.8792 54.4598 36.1657 52.1801C38.4521 49.9003 41.5532 48.6195 44.7867 48.6195Z" fill="#C200A9"/>
<path d="M77.7888 27.8695C76.6572 26.7398 75.3131 25.8439 73.8336 25.2331C72.3542 24.6222 70.7684 24.3085 69.1671 24.3097C67.5657 24.3083 65.9799 24.622 64.5004 25.2328C63.0209 25.8437 61.6768 26.7397 60.5453 27.8695C59.4115 28.9972 58.5124 30.3372 57.8997 31.8125C57.2871 33.2879 56.9728 34.8694 56.9751 36.4662C56.9751 38.0624 57.2905 39.643 57.9032 41.1177C58.516 42.5925 59.4141 43.9324 60.5462 45.0609C61.6784 46.1895 63.0225 47.0847 64.5016 47.6952C65.9808 48.3058 67.5661 48.6199 69.1671 48.6194C70.7685 48.6214 72.3545 48.3079 73.834 47.697C75.3136 47.0861 76.6576 46.1899 77.7888 45.0597C78.9225 43.9325 79.8215 42.593 80.4342 41.1183C81.0469 39.6435 81.3612 38.0625 81.359 36.4662C81.3613 34.8694 81.0471 33.2879 80.4344 31.8125C79.8217 30.3372 78.9226 28.9972 77.7888 27.8695Z" fill="#8EC300"/>
<path d="M5.03483 100.998C4.14118 101.014 3.25834 100.802 2.46927 100.383C1.71068 99.9742 1.08525 99.3572 0.666707 98.6052C0.203517 97.7473 -0.0256028 96.7832 0.00227111 95.8094V86.7372H1.77622V92.7156H1.83027C2.04834 92.3183 2.33954 91.9656 2.68863 91.6758C3.0493 91.3757 3.46047 91.1418 3.90306 90.9848C4.35939 90.819 4.84162 90.7353 5.32731 90.7376C6.18336 90.724 7.02781 90.9362 7.77523 91.3525C8.49472 91.7641 9.08567 92.3665 9.48242 93.0928C9.92067 93.911 10.1397 94.8281 10.1182 95.7555C10.129 96.4995 10.0007 97.2391 9.73993 97.9363C9.50726 98.5564 9.15029 99.1226 8.69082 99.6005C8.24359 100.06 7.70112 100.417 7.10126 100.647C6.44052 100.891 5.73963 101.011 5.03483 100.998ZM5.03483 99.4801C5.614 99.4874 6.18393 99.3349 6.68161 99.0395C7.18282 98.7376 7.59262 98.306 7.86743 97.7905C8.17678 97.1971 8.32993 96.535 8.3125 95.8664C8.32672 95.2124 8.17702 94.5652 7.87697 93.9835C7.60711 93.4656 7.20456 93.0281 6.71022 92.7156C6.21455 92.405 5.63926 92.2442 5.0539 92.2528C4.4736 92.2478 3.90299 92.4012 3.40393 92.6965C2.90105 93.0017 2.49365 93.4408 2.22766 93.9645C1.92665 94.5628 1.77815 95.2258 1.7953 95.8949C1.77893 96.5549 1.92751 97.2085 2.22766 97.7969C2.49801 98.3125 2.90482 98.7444 3.40393 99.0458C3.89732 99.337 4.46154 99.4872 5.03483 99.4801Z" fill="black"/>
<path d="M16.9504 100.998C16.0773 101.022 15.2171 100.784 14.4802 100.317C13.787 99.859 13.2363 99.2166 12.8906 98.4625C12.5116 97.6498 12.3204 96.7626 12.3311 95.8664C12.3185 94.9605 12.5304 94.0655 12.9478 93.2608C13.3536 92.4919 13.9684 91.8525 14.7218 91.4159C15.5684 90.9433 16.5273 90.7078 17.4972 90.7344C18.4356 90.7075 19.3632 90.9401 20.1772 91.4064C20.9116 91.8432 21.5094 92.4755 21.9034 93.2322C22.3085 94.0303 22.5115 94.9151 22.4948 95.8094V100.77H20.7017V98.77H20.6636C20.4554 99.1615 20.192 99.5213 19.8815 99.8383C19.5321 100.193 19.1163 100.477 18.6575 100.672C18.1181 100.9 17.5362 101.012 16.9504 100.998ZM17.4113 99.4801C18.0139 99.4916 18.607 99.3287 19.1185 99.0109C19.6147 98.6915 20.0129 98.2418 20.2694 97.7113C20.5517 97.1275 20.6932 96.4859 20.6827 95.8379C20.6931 95.2072 20.5583 94.5825 20.2884 94.012C20.0377 93.493 19.6469 93.054 19.1599 92.7441C18.6461 92.4229 18.0493 92.2588 17.4431 92.2718C16.8141 92.2547 16.1939 92.4222 15.6596 92.7536C15.1675 93.0727 14.7736 93.5214 14.5215 94.0501C14.252 94.6308 14.1173 95.2646 14.1273 95.9045C14.1177 96.531 14.2492 97.1516 14.512 97.7208C14.755 98.2503 15.1429 98.7007 15.631 99.0204C16.1652 99.3446 16.7833 99.5044 17.4082 99.4801H17.4113Z" fill="black"/>
<path d="M30.4072 100.998C29.5807 101.013 28.7632 100.826 28.026 100.453C27.3452 100.108 26.7765 99.5767 26.3856 98.9222C25.9832 98.2285 25.7797 97.4379 25.7975 96.6367V90.9658H27.5809V96.6177C27.5671 97.1528 27.7013 97.6814 27.9688 98.1456C28.2134 98.5642 28.5701 98.9067 28.9988 99.1346C29.4222 99.3637 29.8968 99.4826 30.3786 99.4801C30.8655 99.4839 31.3456 99.365 31.7742 99.1346C32.2047 98.9044 32.5649 98.5628 32.817 98.1456C33.0898 97.6834 33.2264 97.1538 33.2112 96.6177V90.9658H35.0042V96.6367C35.0219 97.4391 34.8149 98.2306 34.4065 98.9222C34.0129 99.5734 33.4462 100.103 32.7693 100.453C32.0385 100.825 31.2274 101.012 30.4072 100.998Z" fill="black"/>
<path d="M47.206 100.77V92.4841H45.4893V90.9658H47.206V89.5235C47.184 89.1499 47.2383 88.7758 47.3657 88.4238C47.493 88.0719 47.6907 87.7493 47.9467 87.4757C48.2211 87.2204 48.5446 87.0233 48.8976 86.8964C49.2506 86.7694 49.6258 86.7153 50.0004 86.7372H52.1209V88.2555H50.347C50.1637 88.2431 49.98 88.2691 49.8075 88.3319C49.635 88.3947 49.4776 88.4929 49.3455 88.6201C49.1008 88.9009 48.9764 89.2663 48.999 89.6376V90.9658H55.6307V100.77H53.8567V92.4841H48.999V100.77H47.206ZM54.7437 89.3586C54.5869 89.3598 54.4315 89.3289 54.2872 89.2678C54.1428 89.2067 54.0125 89.1168 53.9044 89.0036C53.7906 88.896 53.7002 88.7662 53.6389 88.6222C53.5777 88.4782 53.5468 88.3232 53.5483 88.1668C53.5469 88.0109 53.5778 87.8563 53.639 87.7128C53.7003 87.5694 53.7906 87.4401 53.9044 87.3331C54.0124 87.2195 54.1426 87.1291 54.2869 87.0675C54.4312 87.0059 54.5867 86.9744 54.7437 86.9749C54.9024 86.9725 55.0598 87.0031 55.206 87.0648C55.3521 87.1264 55.4838 87.2178 55.5925 87.3331C55.7032 87.4419 55.7909 87.5718 55.8504 87.715C55.9099 87.8582 55.9401 88.0118 55.939 88.1668C55.9401 88.3222 55.91 88.4764 55.8505 88.6201C55.791 88.7638 55.7033 88.8942 55.5925 89.0036C55.4845 89.1202 55.3531 89.2129 55.2069 89.2757C55.0607 89.3385 54.9029 89.37 54.7437 89.3682V89.3586Z" fill="black"/>
<path d="M58.9275 100.77V95.0993C58.9082 94.297 59.1117 93.5049 59.5157 92.8107C59.9044 92.1598 60.4683 91.6305 61.1434 91.2828C61.8742 90.9114 62.6853 90.7242 63.5055 90.7376C64.3325 90.7209 65.1507 90.9094 65.8866 91.286C66.558 91.6365 67.1191 92.1653 67.508 92.8139C67.9104 93.5087 68.1138 94.3003 68.0961 95.1025V100.773H66.3222V95.1215C66.3365 94.5851 66.1987 94.0555 65.9248 93.5936C65.6741 93.1757 65.3149 92.8329 64.8852 92.6015C64.4612 92.374 63.987 92.2552 63.5055 92.256C63.0249 92.2552 62.5518 92.374 62.1289 92.6015C61.6976 92.8318 61.3371 93.1748 61.0862 93.5936C60.8133 94.0559 60.6767 94.5854 60.6919 95.1215V100.773L58.9275 100.77Z" fill="black"/>
<path d="M75.4873 100.998C74.6152 101.022 73.7561 100.784 73.0203 100.317C72.3272 99.859 71.7765 99.2166 71.4308 98.4625C71.0503 97.6503 70.859 96.7628 70.8713 95.8664C70.8573 94.9603 71.0692 94.065 71.488 93.2608C71.8938 92.4919 72.5086 91.8525 73.262 91.4159C74.1083 90.9429 75.0674 90.7074 76.0373 90.7344C76.9757 90.7075 77.9033 90.9401 78.7173 91.4064C79.4518 91.8432 80.0496 92.4755 80.4436 93.2322C80.8542 94.0289 81.0626 94.9138 81.0508 95.8094V100.77H79.2578V98.77H79.2196C79.0115 99.1615 78.7481 99.5213 78.4376 99.8383C78.0882 100.193 77.6723 100.477 77.2136 100.672C76.668 100.902 76.0795 101.013 75.4873 100.998ZM75.9515 99.4801C76.5541 99.4916 77.1471 99.3287 77.6587 99.0109C78.1585 98.6898 78.5592 98.2366 78.8159 97.7018C79.0966 97.1174 79.2381 96.4763 79.2292 95.8284C79.2386 95.1978 79.1038 94.5734 78.835 94.0025C78.5832 93.4842 78.1926 93.0454 77.7064 92.7346C77.1926 92.4134 76.5959 92.2492 75.9896 92.2623C75.3606 92.2452 74.7405 92.4127 74.2062 92.7441C73.7126 93.0615 73.3182 93.5107 73.068 94.0406C72.797 94.6208 72.6622 95.255 72.6738 95.8949C72.6642 96.5214 72.7957 97.1421 73.0585 97.7113C73.3015 98.2408 73.6894 98.6912 74.1775 99.0109C74.7097 99.3378 75.3268 99.501 75.9515 99.4801Z" fill="black"/>
<path d="M84.338 100.77V95.0993C84.3203 94.2971 84.5237 93.5055 84.9261 92.8106C85.3149 92.1597 85.8787 91.6304 86.5538 91.2827C87.2914 90.9077 88.1105 90.7204 88.9382 90.7375C89.7652 90.7209 90.5834 90.9093 91.3193 91.2859C91.9913 91.6356 92.5526 92.1646 92.9407 92.8138C93.3431 93.5086 93.5465 94.3003 93.5288 95.1024V100.773H91.7549V95.1215C91.7692 94.585 91.6314 94.0555 91.3575 93.5936C91.1076 93.1749 90.7483 92.832 90.3179 92.6014C89.8939 92.3739 89.4197 92.2552 88.9382 92.2559C88.4576 92.2552 87.9845 92.3739 87.5616 92.6014C87.1303 92.8318 86.7698 93.1747 86.5189 93.5936C86.246 94.0558 86.1094 94.5853 86.1246 95.1215V100.773L84.338 100.77Z" fill="black"/>
<path d="M101.575 100.77C100.628 100.787 99.6926 100.562 98.857 100.117C98.085 99.7031 97.4334 99.0971 96.9654 98.358C96.5012 97.6102 96.2608 96.7458 96.2724 95.8664C96.2605 94.988 96.501 94.1246 96.9654 93.3781C97.4313 92.6373 98.0834 92.0308 98.857 91.6188C99.6926 91.174 100.628 90.9492 101.575 90.9658H102.732V92.4842H101.515C100.898 92.4737 100.289 92.6292 99.7535 92.9343C99.2416 93.2266 98.8153 93.6473 98.5169 94.1547C98.2138 94.674 98.0577 95.2656 98.0654 95.8664C98.0577 96.4672 98.2138 97.0589 98.5169 97.5782C98.8144 98.0863 99.2409 98.5072 99.7535 98.7986C100.289 99.1047 100.898 99.2612 101.515 99.2519H102.732V100.77H101.575Z" fill="black"/>
<path d="M110.238 100.77C109.251 100.787 108.273 100.58 107.377 100.165C106.576 99.7891 105.897 99.1958 105.419 98.453C104.939 97.6764 104.695 96.7781 104.716 95.8664C104.703 94.9565 104.907 94.0566 105.314 93.2417C105.69 92.4915 106.264 91.8571 106.973 91.4064C107.713 90.9495 108.57 90.716 109.44 90.7344C110.334 90.6999 111.218 90.9269 111.984 91.3874C112.65 91.8141 113.177 92.4256 113.5 93.1466C113.842 93.9247 114.012 94.7667 113.999 95.616C113.999 95.7586 113.999 95.9044 113.999 96.0598C113.995 96.1951 113.979 96.3298 113.951 96.4623H106.585C106.633 97.0184 106.84 97.549 107.183 97.9902C107.518 98.411 107.956 98.7385 108.455 98.9412C109.004 99.1573 109.59 99.2649 110.181 99.2582H112.743V100.777L110.238 100.77ZM106.573 95.2134H112.177C112.176 94.9517 112.15 94.6907 112.101 94.4336C112.047 94.1545 111.956 93.8837 111.831 93.6285C111.702 93.3636 111.529 93.1224 111.319 92.9152C111.093 92.6949 110.825 92.5224 110.531 92.4081C110.177 92.2721 109.8 92.2064 109.421 92.2147C109.011 92.2046 108.604 92.2938 108.235 92.4746C107.899 92.6434 107.6 92.8785 107.358 93.1657C107.114 93.4523 106.924 93.781 106.798 94.1356C106.673 94.4829 106.595 94.8454 106.566 95.2134H106.573Z" fill="black"/>
<path d="M38.3901 95.7174H41.0415C41.3613 95.7174 41.678 95.7802 41.9734 95.9023C42.2689 96.0243 42.5374 96.2031 42.7635 96.4286C42.9896 96.654 43.169 96.9217 43.2914 97.2163C43.4137 97.5109 43.4767 97.8267 43.4767 98.1455V100.789H40.8253C40.1811 100.789 39.5632 100.535 39.1068 100.081C38.6503 99.6281 38.3927 99.0129 38.3901 98.3706V95.7269V95.7174Z" fill="#8EC300"/>
</svg>
