<svg width="114" height="101" viewBox="0 0 114 101" fill="none" xmlns="http://www.w3.org/2000/svg">
<path d="M5.03478 100.998C4.14113 101.014 3.25829 100.802 2.46922 100.383C1.71149 99.9745 1.08625 99.3587 0.666656 98.6084C0.203764 97.7492 -0.0253192 96.7842 0.00222005 95.8094V86.7372H1.77617V92.7156H1.83022C2.04828 92.3183 2.33949 91.9656 2.68858 91.6758C3.04924 91.3757 3.46042 91.1418 3.90301 90.9848C4.36315 90.8165 4.84983 90.7316 5.33997 90.7344C6.19602 90.7208 7.04048 90.933 7.7879 91.3493C8.50738 91.7609 9.09834 92.3633 9.49509 93.0896C9.93333 93.9078 10.1523 94.825 10.1309 95.7523C10.1417 96.4964 10.0134 97.2359 9.75259 97.9332C9.51992 98.5532 9.16295 99.1195 8.70348 99.5974C8.25625 100.057 7.71378 100.414 7.11392 100.643C6.4494 100.891 5.74404 101.011 5.03478 100.998ZM5.03478 99.4801C5.61395 99.4874 6.18388 99.3349 6.68156 99.0395C7.18347 98.7385 7.59348 98.3067 7.86738 97.7905C8.17673 97.1971 8.32987 96.535 8.31245 95.8664C8.32667 95.2124 8.17697 94.5652 7.87691 93.9835C7.60706 93.4656 7.20451 93.0281 6.71017 92.7156C6.2145 92.405 5.6392 92.2442 5.05385 92.2528C4.47355 92.2478 3.90294 92.4012 3.40388 92.6965C2.901 93.0017 2.4936 93.4408 2.22761 93.9645C1.9266 94.5628 1.7781 95.2258 1.79525 95.8949C1.77888 96.5549 1.92746 97.2085 2.22761 97.7969C2.49729 98.3129 2.90425 98.745 3.40388 99.0458C3.89727 99.337 4.46148 99.4872 5.03478 99.4801Z" fill="white"/>
<path d="M16.9504 100.998C16.0773 101.022 15.2171 100.784 14.4802 100.317C13.787 99.859 13.2363 99.2166 12.8906 98.4625C12.5116 97.6498 12.3204 96.7626 12.3311 95.8664C12.3185 94.9605 12.5304 94.0655 12.9478 93.2608C13.3536 92.4919 13.9684 91.8525 14.7218 91.4159C15.5684 90.9433 16.5273 90.7078 17.4972 90.7344C18.4356 90.7075 19.3632 90.9401 20.1772 91.4064C20.9116 91.8432 21.5094 92.4755 21.9034 93.2323C22.314 94.0289 22.5225 94.9138 22.5107 95.8094V100.77H20.7176V98.77H20.6795C20.4713 99.1615 20.2079 99.5213 19.8974 99.8383C19.548 100.193 19.1322 100.477 18.6734 100.672C18.1291 100.902 17.5415 101.014 16.9504 100.998ZM17.4113 99.4801C18.0139 99.4916 18.607 99.3287 19.1185 99.0109C19.6184 98.6898 20.019 98.2366 20.2757 97.7018C20.5583 97.1181 20.6999 96.4765 20.689 95.8284C20.6995 95.1977 20.5646 94.573 20.2948 94.0025C20.0441 93.4835 19.6533 93.0445 19.1662 92.7346C18.6525 92.4134 18.0557 92.2493 17.4495 92.2623C16.8205 92.2452 16.2003 92.4127 15.666 92.7441C15.1738 93.0632 14.7799 93.5119 14.5279 94.0406C14.2584 94.6213 14.1236 95.2551 14.1337 95.895C14.1241 96.5215 14.2555 97.1421 14.5183 97.7113C14.7614 98.2408 15.1492 98.6912 15.6374 99.0109C16.1687 99.3372 16.7845 99.5004 17.4082 99.4801H17.4113Z" fill="white"/>
<path d="M30.4071 100.998C29.5807 101.013 28.7632 100.826 28.026 100.453C27.346 100.108 26.7775 99.5783 26.3856 98.9254C25.9835 98.2304 25.78 97.4388 25.7974 96.6367V90.9658H27.5809V96.6177C27.5671 97.1528 27.7013 97.6814 27.9688 98.1456C28.2133 98.5642 28.57 98.9067 28.9988 99.1346C29.4222 99.3637 29.8968 99.4826 30.3785 99.4801C30.8655 99.4839 31.3455 99.365 31.7742 99.1346C32.2047 98.9044 32.5649 98.5628 32.8169 98.1456C33.0897 97.6833 33.2264 97.1538 33.2111 96.6177V90.9658H35.0042V96.6367C35.0215 97.4401 34.8145 98.2324 34.4065 98.9254C34.0115 99.5746 33.4451 100.103 32.7692 100.453C32.0384 100.825 31.2274 101.012 30.4071 100.998Z" fill="white"/>
<path d="M47.206 100.77V92.4841H45.4893V90.9658H47.206V89.5235C47.184 89.1499 47.2383 88.7758 47.3657 88.4238C47.493 88.0719 47.6907 87.7493 47.9467 87.4757C48.2211 87.2204 48.5446 87.0233 48.8976 86.8964C49.2506 86.7694 49.6258 86.7153 50.0004 86.7372H52.1209V88.2555H50.347C50.1637 88.2431 49.98 88.2691 49.8075 88.3319C49.635 88.3947 49.4776 88.4929 49.3455 88.6201C49.1008 88.9009 48.9764 89.2663 48.999 89.6376V90.9658H55.6307V100.77H53.8567V92.4841H48.999V100.77H47.206ZM54.7437 89.3587C54.5869 89.3598 54.4315 89.3289 54.2872 89.2678C54.1428 89.2067 54.0125 89.1168 53.9044 89.0036C53.7906 88.896 53.7002 88.7662 53.6389 88.6222C53.5777 88.4782 53.5468 88.3232 53.5483 88.1668C53.5473 88.0109 53.5783 87.8565 53.6396 87.7131C53.7008 87.5697 53.791 87.4403 53.9044 87.3331C54.0124 87.2195 54.1426 87.1291 54.2869 87.0675C54.4312 87.0059 54.5867 86.9744 54.7437 86.9749C54.9024 86.9725 55.0598 87.0031 55.206 87.0648C55.3521 87.1264 55.4838 87.2178 55.5925 87.3331C55.7029 87.4421 55.7904 87.572 55.8499 87.7152C55.9094 87.8583 55.9397 88.0118 55.939 88.1668C55.9401 88.3223 55.91 88.4764 55.8505 88.6201C55.791 88.7638 55.7033 88.8942 55.5925 89.0036C55.4845 89.1202 55.3531 89.2129 55.2069 89.2757C55.0607 89.3385 54.9029 89.37 54.7437 89.3682V89.3587Z" fill="white"/>
<path d="M58.9275 100.77V95.0993C58.9082 94.297 59.1117 93.5049 59.5157 92.8107C59.9044 92.1598 60.4683 91.6305 61.1434 91.2828C61.874 90.9103 62.685 90.722 63.5055 90.7344C64.3325 90.7178 65.1507 90.9062 65.8866 91.2828C66.558 91.6333 67.1191 92.1621 67.508 92.8107C67.9104 93.5055 68.1138 94.2972 68.0961 95.0993V100.77H66.3222V95.1184C66.3365 94.5819 66.1987 94.0524 65.9248 93.5905C65.6741 93.1725 65.3149 92.8298 64.8852 92.5983C64.4612 92.3708 63.987 92.2521 63.5055 92.2528C63.0276 92.2556 62.5579 92.3765 62.1384 92.6046C61.7071 92.835 61.3467 93.178 61.0957 93.5968C60.8229 94.059 60.6862 94.5886 60.7015 95.1247V100.777L58.9275 100.77Z" fill="white"/>
<path d="M75.4873 100.998C74.6153 101.022 73.7561 100.784 73.0203 100.317C72.3272 99.859 71.7765 99.2166 71.4308 98.4625C71.0503 97.6503 70.859 96.7628 70.8713 95.8664C70.8573 94.9603 71.0692 94.065 71.488 93.2608C71.8938 92.4919 72.5086 91.8525 73.262 91.4159C74.1083 90.9429 75.0674 90.7074 76.0373 90.7344C76.9757 90.7075 77.9033 90.9401 78.7173 91.4064C79.4518 91.8432 80.0496 92.4755 80.4436 93.2323C80.8542 94.0289 81.0626 94.9138 81.0508 95.8094V100.77H79.2578V98.77H79.2196C79.0115 99.1615 78.7481 99.5213 78.4376 99.8383C78.0882 100.193 77.6723 100.477 77.2136 100.672C76.668 100.902 76.0795 101.013 75.4873 100.998ZM75.9515 99.4801C76.5541 99.4916 77.1471 99.3287 77.6587 99.0109C78.1586 98.6898 78.5592 98.2366 78.8159 97.7018C79.097 97.1175 79.2384 96.4763 79.2292 95.8284C79.2386 95.1978 79.1038 94.5734 78.835 94.0025C78.5832 93.4842 78.1927 93.0454 77.7064 92.7346C77.1926 92.4134 76.5959 92.2493 75.9896 92.2623C75.3606 92.2452 74.7405 92.4127 74.2062 92.7441C73.7126 93.0615 73.3182 93.5107 73.068 94.0406C72.797 94.6208 72.6622 95.255 72.6738 95.895C72.6642 96.5215 72.7957 97.1421 73.0585 97.7113C73.3015 98.2408 73.6894 98.6912 74.1775 99.0109C74.7097 99.3378 75.3268 99.501 75.9515 99.4801Z" fill="white"/>
<path d="M84.338 100.77V95.0993C84.3203 94.2972 84.5237 93.5055 84.9261 92.8107C85.3149 92.1598 85.8787 91.6305 86.5538 91.2828C87.2911 90.9067 88.1102 90.7183 88.9382 90.7344C89.7652 90.7178 90.5834 90.9062 91.3193 91.2828C91.9913 91.6325 92.5526 92.1615 92.9407 92.8107C93.3431 93.5055 93.5465 94.2972 93.5288 95.0993V100.77H91.7549V95.1184C91.7692 94.5819 91.6314 94.0524 91.3575 93.5905C91.1033 93.1725 90.7394 92.8316 90.3052 92.6046C89.8811 92.3771 89.407 92.2584 88.9255 92.2591C88.4449 92.2584 87.9718 92.3771 87.5489 92.6046C87.1175 92.835 86.7571 93.178 86.5061 93.5968C86.2333 94.059 86.0967 94.5886 86.1119 95.1247V100.777L84.338 100.77Z" fill="white"/>
<path d="M101.575 100.77C100.628 100.787 99.6926 100.562 98.857 100.117C98.085 99.7031 97.4334 99.0971 96.9654 98.358C96.5012 97.6102 96.2608 96.7458 96.2724 95.8664C96.2605 94.988 96.501 94.1246 96.9654 93.3781C97.4323 92.638 98.0841 92.0317 98.857 91.6188C99.6926 91.174 100.628 90.9492 101.575 90.9658H102.732V92.4842H101.515C100.897 92.4687 100.286 92.6198 99.7472 92.9216C99.2344 93.2142 98.8079 93.6362 98.5105 94.1452C98.207 94.6632 98.051 95.2539 98.0591 95.8538C98.0514 96.4546 98.2074 97.0462 98.5105 97.5655C98.808 98.0736 99.2345 98.4945 99.7472 98.7859C100.283 99.092 100.891 99.2485 101.508 99.2392H102.726V100.758L101.575 100.77Z" fill="white"/>
<path d="M110.238 100.77C109.251 100.787 108.273 100.58 107.377 100.165C106.575 99.7901 105.896 99.1966 105.419 98.453C104.939 97.6764 104.695 96.7781 104.716 95.8664C104.703 94.9565 104.907 94.0566 105.314 93.2418C105.69 92.4915 106.264 91.8571 106.973 91.4064C107.713 90.9495 108.57 90.716 109.44 90.7344C110.334 90.6999 111.218 90.9269 111.984 91.3874C112.65 91.8141 113.177 92.4256 113.5 93.1467C113.842 93.9247 114.012 94.7668 113.999 95.616C113.999 95.7586 113.999 95.9045 113.999 96.0598C113.995 96.1951 113.979 96.3298 113.951 96.4623H106.585C106.633 97.0184 106.84 97.549 107.183 97.9902C107.518 98.411 107.956 98.7385 108.455 98.9412C109.004 99.1573 109.59 99.2649 110.181 99.2582H112.743V100.777L110.238 100.77ZM106.573 95.2134H112.177C112.176 94.9528 112.15 94.6928 112.101 94.4368C112.048 94.1565 111.957 93.8846 111.831 93.6285C111.701 93.3659 111.528 93.1269 111.319 92.9216C111.093 92.7013 110.825 92.5288 110.531 92.4144C110.177 92.2784 109.8 92.2127 109.421 92.221C109.011 92.211 108.604 92.3002 108.235 92.481C107.899 92.6497 107.6 92.8848 107.358 93.172C107.114 93.4586 106.924 93.7873 106.798 94.142C106.674 94.4872 106.595 94.8476 106.566 95.2134H106.573Z" fill="white"/>
<path d="M38.3901 95.7174H41.0415C41.6874 95.7174 42.3068 95.9732 42.7635 96.4286C43.2202 96.8839 43.4767 97.5016 43.4767 98.1455V100.789H40.8253C40.5056 100.789 40.1889 100.726 39.8934 100.604C39.598 100.482 39.3295 100.303 39.1034 100.078C38.8773 99.8525 38.6979 99.5849 38.5755 99.2903C38.4531 98.9957 38.3901 98.6799 38.3901 98.3611V95.7174Z" fill="#8EC300"/>
<path d="M32.5978 24.3098L56.9785 24.3098V5.34058e-05L32.5978 5.34058e-05V24.3098Z" fill="#E8CB3C"/>
<path d="M81.3558 60.7776C81.3558 54.0646 75.898 48.6227 69.1655 48.6227C62.4329 48.6227 56.9751 54.0646 56.9751 60.7776C56.9751 67.4905 62.4329 72.9324 69.1655 72.9324C75.898 72.9324 81.3558 67.4905 81.3558 60.7776Z" fill="#0091F0"/>
<path d="M44.7866 48.6227H32.5946V36.4662C32.5946 33.2421 33.8791 30.1501 36.1656 27.8703C38.452 25.5906 41.5531 24.3098 44.7866 24.3098H56.9785V36.4662C56.9785 39.6903 55.694 42.7824 53.4076 45.0621C51.1211 47.3419 48.0201 48.6227 44.7866 48.6227Z" fill="#E10E1A"/>
<path d="M44.7867 48.6227H56.9786V60.7791C56.9786 64.0032 55.6941 67.0953 53.4077 69.375C51.1212 71.6548 48.0202 72.9356 44.7867 72.9356C41.5532 72.9356 38.4521 71.6548 36.1657 69.375C33.8792 67.0953 32.5947 64.0032 32.5947 60.7791C32.5947 57.555 33.8792 54.463 36.1657 52.1832C38.4521 49.9034 41.5532 48.6227 44.7867 48.6227Z" fill="#C200A9"/>
<path d="M77.7888 27.8696C76.6572 26.74 75.3131 25.844 73.8336 25.2332C72.3542 24.6223 70.7684 24.3086 69.1671 24.3098C67.5657 24.3084 65.9799 24.6221 64.5004 25.233C63.0209 25.8438 61.6768 26.7398 60.5453 27.8696C59.4115 28.9973 58.5124 30.3373 57.8997 31.8126C57.2871 33.288 56.9728 34.8695 56.9751 36.4663C56.9751 38.0625 57.2905 39.6431 57.9032 41.1178C58.516 42.5925 59.4141 43.9325 60.5462 45.0611C61.6784 46.1896 63.0225 47.0848 64.5016 47.6953C65.9808 48.3059 67.5661 48.62 69.1671 48.6195C70.7687 48.6211 72.3548 48.3071 73.8344 47.6956C75.314 47.0842 76.6579 46.1874 77.7888 45.0566C78.9225 43.9295 79.8215 42.59 80.4342 41.1152C81.0469 39.6404 81.3612 38.0594 81.359 36.4631C81.3609 34.8668 81.0464 33.2859 80.4338 31.8112C79.8211 30.3364 78.9222 28.9969 77.7888 27.8696Z" fill="#8EC300"/>
</svg>
