<svg width="32" height="32" viewBox="0 0 32 32" fill="none" xmlns="http://www.w3.org/2000/svg">
<rect width="32" height="32" rx="16" fill="#E5E8DF"/>
<g clip-path="url(#clip0_267_10730)">
<path d="M19.5137 9.28967H17.9839V11.603H19.5137V9.28967Z" fill="#1682FE"/>
<path d="M15.1231 5H13.5933V7.31337H15.1231V5Z" fill="#1682FE"/>
<path d="M10.7329 7.20618H9.20312V9.51955H10.7329V7.20618Z" fill="#60D8A4"/>
<path d="M8.54509 16H7V22.6031H8.54509V16Z" fill="#F4BB3B"/>
<path d="M8.54509 9.39697H7V16H8.54509V9.39697Z" fill="#60D8A4"/>
<path d="M21.7012 11.4958H20.1714V13.8092H21.7012V11.4958Z" fill="#1682FE"/>
<path d="M21.7012 18.1908H20.1714V20.5042H21.7012V18.1908Z" fill="#FF5A5A"/>
<path d="M19.5137 20.397H17.9839V22.7103H19.5137V20.397Z" fill="#FF5A5A"/>
<path d="M15.1231 24.6865H13.5933V26.9999H15.1231V24.6865Z" fill="#FF5A5A"/>
<path d="M10.7329 22.4805H9.20312V24.7938H10.7329V22.4805Z" fill="#F4BB3B"/>
<path d="M26.0001 13.7939V9.39694H23.7972V7.20613H19.4067V5H15.0163V7.20613H10.6258V9.41226H8.42285V22.6031H10.6258V24.8092H15.0163V27.0153H19.4067V24.8092H23.7972V22.6031H26.0001V18.1908H21.6096V20.3969H19.4067V22.6031H15.0163V20.3969H12.8286V11.6031H15.0315V9.39694H19.422V11.6031H21.6249V13.8092H26.0001V13.7939Z" fill="#3A3A3A"/>
</g>
<defs>
<clipPath id="clip0_267_10730">
<rect width="22" height="22" fill="white" transform="translate(5 5)"/>
</clipPath>
</defs>
</svg>
